<?xml version="1.0" encoding="UTF-8"?>
<!DOCTYPE svg PUBLIC "-//W3C//DTD SVG 1.1//EN" "http://www.w3.org/Graphics/SVG/1.1/DTD/svg11.dtd">
<svg xmlns="http://www.w3.org/2000/svg" version="1.1" width="2048px" height="2048px" style="shape-rendering:geometricPrecision; text-rendering:geometricPrecision; image-rendering:optimizeQuality; fill-rule:evenodd; clip-rule:evenodd" xmlns:xlink="http://www.w3.org/1999/xlink">
<g><path style="opacity:0.989" fill="#ffe98e" d="M 518.5,571.5 C 520.722,571.178 522.556,571.845 524,573.5C 525.254,580.465 525.587,587.465 525,594.5C 523.45,600.728 521.117,601.061 518,595.5C 517.74,591.75 517.073,588.084 516,584.5C 515.333,580.833 515.333,577.167 516,573.5C 516.995,572.934 517.828,572.267 518.5,571.5 Z"/></g>
<g><path style="opacity:0.989" fill="#ffe88e" d="M 570.5,574.5 C 572.5,574.5 574.5,574.5 576.5,574.5C 576.34,584.125 574.674,593.459 571.5,602.5C 569.994,603.747 568.494,603.747 567,602.5C 565.888,600.61 565.054,598.61 564.5,596.5C 565.881,590.879 567.048,585.212 568,579.5C 568.366,577.548 569.199,575.882 570.5,574.5 Z"/></g>
<g><path style="opacity:0.972" fill="#ffe98e" d="M 460.5,588.5 C 463.263,588.744 465.429,590.077 467,592.5C 470.245,597.825 473.079,603.325 475.5,609C 474.39,613.643 471.723,614.643 467.5,612C 462.68,606.198 459.013,599.698 456.5,592.5C 457.368,590.603 458.701,589.27 460.5,588.5 Z"/></g>
<g><path style="opacity:0.971" fill="#040404" d="M 522.5,612.5 C 585.896,609.506 620.563,639.506 626.5,702.5C 627.681,721.48 621.014,736.98 606.5,749C 610.864,758.228 615.364,767.395 620,776.5C 620.847,779.588 620.347,782.421 618.5,785C 601.672,792.582 585.005,800.415 568.5,808.5C 563.037,804.856 559.204,799.856 557,793.5C 555.951,794.517 554.784,794.684 553.5,794C 554.672,793.581 555.672,792.915 556.5,792C 554.306,787.751 552.306,783.418 550.5,779C 539.142,781.085 527.642,782.585 516,783.5C 501.572,783.357 488.739,778.857 477.5,770C 444.961,740.316 436.461,704.816 452,663.5C 467.817,635.845 491.317,618.845 522.5,612.5 Z"/></g>
<g><path style="opacity:0.982" fill="#ffe88e" d="M 418.5,618.5 C 420.482,618.995 422.482,619.495 424.5,620C 429.333,624.167 434.167,628.333 439,632.5C 439.782,635.257 439.282,637.757 437.5,640C 435.711,640.52 434.044,640.187 432.5,639C 426.083,634.253 420.75,628.586 416.5,622C 416.978,620.697 417.645,619.531 418.5,618.5 Z"/></g>
<g><path style="opacity:1" fill="#fee98e" d="M 591.5,768.5 C 590.601,746.575 587.768,724.908 583,703.5C 579.422,688.84 572.589,676.007 562.5,665C 550.932,656.035 539.098,655.535 527,663.5C 525.5,665.833 524,668.167 522.5,670.5C 500.177,673.117 491.677,685.45 497,707.5C 502.369,721.543 510.869,733.376 522.5,743C 539.763,756.246 558.096,767.913 577.5,778C 572.13,782.016 566.463,785.516 560.5,788.5C 556.786,784.765 553.786,780.431 551.5,775.5C 550.5,775.167 549.5,774.833 548.5,774.5C 502.06,785.197 470.56,768.197 454,723.5C 444.152,674.364 462.652,640.864 509.5,623C 544.16,613.04 574.327,620.54 600,645.5C 615.839,665.019 622.839,687.352 621,712.5C 620.198,718.905 618.198,724.905 615,730.5C 610.7,735.801 606.034,740.801 601,745.5C 600.362,746.609 599.862,747.775 599.5,749C 601.737,753.202 604.071,757.369 606.5,761.5C 601.588,764.124 596.588,766.457 591.5,768.5 Z"/></g>
<g><path style="opacity:0.978" fill="#040404" d="M 857.5,651.5 C 859.5,651.5 861.5,651.5 863.5,651.5C 863.662,653.527 863.495,655.527 863,657.5C 847.683,690.581 852.849,720.081 878.5,746C 881.888,748.361 885.554,750.194 889.5,751.5C 894.252,745.243 899.585,739.41 905.5,734C 927.493,714.674 951.16,697.674 976.5,683C 1026.39,655.412 1075.72,656.746 1124.5,687C 1153.95,704.786 1177.79,728.286 1196,757.5C 1232.4,739.015 1270.57,733.849 1310.5,742C 1336.8,751.968 1352.63,770.801 1358,798.5C 1363.36,834.12 1358.86,868.453 1344.5,901.5C 1353.57,902.204 1362.57,903.371 1371.5,905C 1391.59,911.652 1399.42,925.485 1395,946.5C 1394.37,949.393 1393.54,952.226 1392.5,955C 1392.83,955.5 1393.17,956 1393.5,956.5C 1424.18,950.414 1454.51,942.914 1484.5,934C 1487.83,933.333 1491.17,933.333 1494.5,934C 1496.81,935.296 1497.81,937.296 1497.5,940C 1476.35,1015.15 1429.35,1066.82 1356.5,1095C 1364.51,1103.81 1366.68,1113.98 1363,1125.5C 1361.79,1128.76 1359.96,1131.59 1357.5,1134C 1395.21,1134.49 1432.55,1138.49 1469.5,1146C 1483.5,1148.92 1497.16,1152.92 1510.5,1158C 1523.5,1163.76 1525,1171.92 1515,1182.5C 1489.84,1203.66 1462.34,1221.16 1432.5,1235C 1454.05,1254.21 1473.88,1275.05 1492,1297.5C 1496.06,1305.04 1499.73,1312.71 1503,1320.5C 1503.89,1323.92 1503.39,1327.08 1501.5,1330C 1467.52,1333.48 1433.52,1336.81 1399.5,1340C 1377.3,1341.62 1355.3,1340.28 1333.5,1336C 1314.84,1330.67 1299.34,1320.51 1287,1305.5C 1281.28,1298.11 1275.94,1290.44 1271,1282.5C 1281.07,1316.64 1286.4,1351.64 1287,1387.5C 1289.5,1426.94 1286.5,1465.94 1278,1504.5C 1274.81,1514.09 1270.48,1523.09 1265,1531.5C 1264.64,1540.65 1263.31,1549.65 1261,1558.5C 1243.65,1613.87 1220.31,1666.53 1191,1716.5C 1181.49,1730.19 1171.49,1743.52 1161,1756.5C 1150.83,1768 1140,1778.83 1128.5,1789C 1112.15,1798.99 1100.31,1795.16 1093,1777.5C 1087.8,1762.9 1082.8,1748.23 1078,1733.5C 1070.72,1713.76 1059.55,1696.59 1044.5,1682C 1022.41,1667.61 998.409,1663.28 972.5,1669C 964.214,1671.29 956.881,1675.29 950.5,1681C 933.527,1696.77 920.361,1715.27 911,1736.5C 903.844,1756.8 896.844,1777.13 890,1797.5C 886.861,1801.58 883.028,1802.41 878.5,1800C 866.719,1790.94 856.885,1780.11 849,1767.5C 823.648,1726.8 801.981,1684.13 784,1639.5C 773.814,1613.07 767.647,1585.74 765.5,1557.5C 765.837,1554.82 766.17,1552.16 766.5,1549.5C 761.752,1549.73 757.085,1549.23 752.5,1548C 750.652,1546.48 749.152,1544.65 748,1542.5C 745.667,1489.46 746.167,1436.46 749.5,1383.5C 718.257,1374.58 701.924,1353.74 700.5,1321C 701.83,1299.68 709.496,1281.01 723.5,1265C 715.595,1259.27 713.428,1251.77 717,1242.5C 723.29,1231.38 731.79,1222.38 742.5,1215.5C 734.094,1205.93 726.261,1195.93 719,1185.5C 708.143,1167.56 702.976,1148.06 703.5,1127C 704.217,1115.12 705.05,1103.29 706,1091.5C 697.11,1101.7 685.944,1107.86 672.5,1110C 654.265,1112.89 636.931,1109.56 620.5,1100C 582.772,1075.42 555.272,1042.25 538,1000.5C 528.263,978.622 520.93,955.955 516,932.5C 515.333,927.5 515.333,922.5 516,917.5C 517.167,915 519,913.167 521.5,912C 525.572,911.342 529.572,911.675 533.5,913C 561.5,926.333 589.5,939.667 617.5,953C 635.376,961.181 653.709,968.181 672.5,974C 680.861,974.812 689.195,975.645 697.5,976.5C 700.443,975.756 703.443,975.256 706.5,975C 673.672,958.841 661.839,933.008 671,897.5C 678.445,868.278 691.445,841.945 710,818.5C 727.223,801.312 748.057,793.812 772.5,796C 777.546,796.814 782.546,797.48 787.5,798C 782.237,790.543 779.57,782.209 779.5,773C 781.856,746.47 791.023,722.637 807,701.5C 821.069,681.931 837.902,665.264 857.5,651.5 Z M 852.5,664.5 C 852.167,664.5 851.833,664.5 851.5,664.5C 853.17,661.895 853.504,661.895 852.5,664.5 Z M 1260.5,1259.5 C 1259.04,1258.59 1258.04,1257.26 1257.5,1255.5C 1258.32,1254.61 1259.32,1254.28 1260.5,1254.5C 1260.5,1256.17 1260.5,1257.83 1260.5,1259.5 Z"/></g>
<g><path style="opacity:0.985" fill="#ffe88e" d="M 387.5,662.5 C 395.898,662.129 403.065,664.796 409,670.5C 409.976,674.534 408.309,676.534 404,676.5C 398.666,675.542 393.5,674.042 388.5,672C 385.184,668.979 384.851,665.813 387.5,662.5 Z"/></g>
<g><path style="opacity:1" fill="#cebd92" d="M 851.5,664.5 C 851.833,664.5 852.167,664.5 852.5,664.5C 843.323,695.629 850.323,722.462 873.5,745C 879.149,748.069 884.649,751.236 890,754.5C 920.926,724.941 955.76,700.774 994.5,682C 1031.58,665.906 1068.25,666.906 1104.5,685C 1129.21,698.104 1151.04,714.937 1170,735.5C 1177.32,744.151 1184.16,753.151 1190.5,762.5C 1192.82,764.316 1194.98,766.316 1197,768.5C 1197.66,765.953 1197.49,763.453 1196.5,761C 1197.44,759.523 1198.78,758.523 1200.5,758C 1230.93,746.7 1262.26,742.7 1294.5,746C 1323.68,750.518 1342.18,767.018 1350,795.5C 1356.78,832.162 1352.45,867.496 1337,901.5C 1335.31,906.801 1337.14,909.801 1342.5,910.5C 1355.39,908.652 1367.72,910.486 1379.5,916C 1389.08,923.624 1392.24,933.457 1389,945.5C 1387.86,949.243 1386.53,952.91 1385,956.5C 1382.07,958.066 1378.9,958.9 1375.5,959C 1347.59,962.995 1319.59,963.995 1291.5,962C 1277.79,960.28 1264.13,958.28 1250.5,956C 1260.04,948.13 1268.54,939.297 1276,929.5C 1283.9,915.205 1284.57,900.539 1278,885.5C 1271.01,870.849 1263.01,856.849 1254,843.5C 1245.29,832.708 1234.13,828.875 1220.5,832C 1204.22,836.215 1190.39,844.381 1179,856.5C 1178.18,858.728 1178.51,860.728 1180,862.5C 1180.69,859.804 1182.19,857.637 1184.5,856C 1194.11,849.36 1204.45,844.027 1215.5,840C 1231,834.833 1243.17,839 1252,852.5C 1259.43,864.355 1266.1,876.688 1272,889.5C 1278.64,903.302 1277.31,916.302 1268,928.5C 1246.72,952.123 1222.22,971.623 1194.5,987C 1182.75,992.125 1170.75,992.792 1158.5,989C 1126.17,975.005 1095.17,958.671 1065.5,940C 1062.74,939.122 1060.08,938.122 1057.5,937C 1066.28,923.789 1069.44,909.289 1067,893.5C 1063.66,877.816 1057.32,863.483 1048,850.5C 1043.58,843.989 1038.91,837.655 1034,831.5C 1022.73,817.077 1008.23,812.244 990.5,817C 984.635,819.542 979.301,822.875 974.5,827C 957.225,843.936 941.058,861.77 926,880.5C 924.664,883.009 923.83,885.676 923.5,888.5C 923.342,890.319 924.009,891.652 925.5,892.5C 943.202,868.628 963.535,847.128 986.5,828C 999.019,820.173 1011.02,820.839 1022.5,830C 1039.41,846.98 1051.91,866.813 1060,889.5C 1063.61,904.806 1061.27,919.139 1053,932.5C 1037.81,952.358 1019.97,969.525 999.5,984C 987.419,992.706 974.085,998.706 959.5,1002C 945.514,1003.5 932.181,1001.17 919.5,995C 893.634,983.455 870.801,967.622 851,947.5C 851.019,945.893 851.185,944.226 851.5,942.5C 847.336,942.857 844.169,941.19 842,937.5C 835.483,929.971 830.15,921.638 826,912.5C 822.323,904.058 821.657,895.391 824,886.5C 840.224,842.534 866.39,805.7 902.5,776C 935.042,752.467 970.709,746.467 1009.5,758C 1016.89,760.409 1024.23,762.909 1031.5,765.5C 1005.29,749.905 976.956,744.405 946.5,749C 933.19,751.158 920.857,755.825 909.5,763C 868.902,791.658 839.402,829.158 821,875.5C 814.351,891.658 815.351,907.325 824,922.5C 828.56,930.393 833.893,937.727 840,944.5C 840.667,945.167 840.667,945.833 840,946.5C 819.274,961.444 796.441,971.944 771.5,978C 741.968,981.618 715.301,974.618 691.5,957C 680.45,947.567 674.45,935.567 673.5,921C 677.687,892.773 686.853,866.273 701,841.5C 723.575,804.744 755.742,792.577 797.5,805C 803.462,807.486 809.129,810.153 814.5,813C 808.358,808.205 801.691,804.205 794.5,801C 794.957,800.586 795.291,800.086 795.5,799.5C 793.235,794.727 790.735,790.061 788,785.5C 784.909,775.867 784.909,766.2 788,756.5C 799.159,718.855 820.325,688.189 851.5,664.5 Z"/></g>
<g><path style="opacity:1" fill="#fee98e" d="M 537.5,665.5 C 547.826,664.248 556.326,667.582 563,675.5C 569.614,686.067 574.614,697.401 578,709.5C 581.531,730.341 584.698,751.175 587.5,772C 584.995,773.753 582.329,775.253 579.5,776.5C 562.144,764.488 545.144,751.988 528.5,739C 518,729.484 509.834,718.318 504,705.5C 499.302,689.548 505.135,680.548 521.5,678.5C 520.72,689.443 525.053,697.609 534.5,703C 539.958,703.851 543.791,701.685 546,696.5C 548.001,688.819 546.167,682.319 540.5,677C 537.318,674.909 533.985,673.075 530.5,671.5C 532.307,668.781 534.64,666.781 537.5,665.5 Z"/></g>
<g><path style="opacity:1" fill="#fee98e" d="M 527.5,679.5 C 536.17,680.328 540.336,684.995 540,693.5C 537.939,696.902 535.439,697.068 532.5,694C 528.945,689.835 527.278,685.002 527.5,679.5 Z"/></g>
<g><path style="opacity:1" fill="#040504" d="M 1031.5,765.5 C 1033.1,765.312 1034.44,765.812 1035.5,767C 1033.86,767.348 1032.53,766.848 1031.5,765.5 Z"/></g>
<g><path style="opacity:1" fill="#9d9d97" d="M 608.5,768.5 C 609.496,768.414 610.329,768.748 611,769.5C 612.579,772.994 614.413,776.327 616.5,779.5C 616.167,779.833 615.833,780.167 615.5,780.5C 599.563,786.976 584.063,794.309 569,802.5C 565.77,799.703 563.27,796.37 561.5,792.5C 577.656,785.256 593.323,777.256 608.5,768.5 Z"/></g>
<g><path style="opacity:0.971" fill="#040404" d="M 623.5,791.5 C 635.642,790.151 640.142,795.485 637,807.5C 633.954,808.965 631.121,810.799 628.5,813C 631.3,814.232 634.3,814.899 637.5,815C 639.223,815.775 640.223,817.108 640.5,819C 636.589,827.591 631.089,835.091 624,841.5C 624.081,843.638 625.081,843.971 627,842.5C 626.394,845.46 624.561,847.627 621.5,849C 619.299,849.825 617.466,849.325 616,847.5C 614.786,842.657 615.953,838.49 619.5,835C 612.54,836.76 605.54,838.76 598.5,841C 596.167,841.667 593.833,841.667 591.5,841C 590.333,840.5 589.5,839.667 589,838.5C 588.748,835.333 588.582,832.333 588.5,829.5C 580.575,833.591 574.408,831.925 570,824.5C 569.219,823.056 569.386,821.723 570.5,820.5C 571.086,820.709 571.586,821.043 572,821.5C 576.546,817.286 581.379,813.453 586.5,810C 598.368,802.733 610.701,796.566 623.5,791.5 Z"/></g>
<g><path style="opacity:1" fill="#9d9d97" d="M 625.5,798.5 C 627.199,798.34 628.866,798.506 630.5,799C 631.059,799.725 631.392,800.558 631.5,801.5C 628.691,804.503 625.525,807.169 622,809.5C 619.665,813.155 620.165,816.321 623.5,819C 627.142,819.914 630.808,820.748 634.5,821.5C 633.167,823.167 631.833,824.833 630.5,826.5C 628.232,825.456 625.899,825.289 623.5,826C 614.262,829.468 604.928,832.635 595.5,835.5C 594.833,835.167 594.167,834.833 593.5,834.5C 594.667,832.167 595.833,829.833 597,827.5C 597.72,825.888 597.554,824.388 596.5,823C 590.757,823.015 585.091,823.848 579.5,825.5C 577.078,825.743 575.412,824.743 574.5,822.5C 590.956,813.102 607.956,805.102 625.5,798.5 Z"/></g>
<g><path style="opacity:1" fill="#fbf5dd" d="M 522.5,919.5 C 527.034,919.267 531.368,920.1 535.5,922C 574.253,942.581 614.253,960.247 655.5,975C 673.58,981.25 691.914,982.083 710.5,977.5C 724.36,982.714 738.693,985.881 753.5,987C 747.152,993.536 741.652,1000.7 737,1008.5C 730.124,1020.92 723.791,1033.59 718,1046.5C 711.665,1017.49 693.832,1004.99 664.5,1009C 642.394,1014.72 635.894,1028.22 645,1049.5C 649.597,1060.04 656.931,1068.04 667,1073.5C 667.5,1073.33 668,1073.17 668.5,1073C 664.822,1065.32 660.322,1058.15 655,1051.5C 651.439,1045.82 649.273,1039.65 648.5,1033C 648.793,1025.7 652.459,1021.04 659.5,1019C 683.836,1011.25 700.336,1019.42 709,1043.5C 713.734,1080.45 697.4,1100.45 660,1103.5C 645.821,1102.55 632.655,1098.39 620.5,1091C 586.507,1067.89 561.34,1037.39 545,999.5C 533.95,975.682 526.116,950.849 521.5,925C 521.581,923.076 521.914,921.243 522.5,919.5 Z"/></g>
<g><path style="opacity:1" fill="#fbf5dd" d="M 891.5,989.5 C 899.78,993.64 908.114,997.807 916.5,1002C 943.527,1014.8 969.527,1012.96 994.5,996.5C 994.833,996.833 995.167,997.167 995.5,997.5C 983.303,1023.54 985.136,1048.54 1001,1072.5C 1017.28,1097.07 1040.11,1111.57 1069.5,1116C 1098.01,1119.44 1125.67,1116.11 1152.5,1106C 1178.96,1093.19 1195.46,1072.35 1202,1043.5C 1204.92,1026.14 1205.25,1008.81 1203,991.5C 1219.46,981.71 1234.79,970.376 1249,957.5C 1279.86,968.737 1311.69,972.904 1344.5,970C 1392.34,966.566 1439.01,957.232 1484.5,942C 1486.5,941.333 1488.5,941.333 1490.5,942C 1477,981.024 1455.66,1015.02 1426.5,1044C 1401.38,1065.9 1372.72,1081.56 1340.5,1091C 1323.3,1095.83 1305.97,1096.49 1288.5,1093C 1266.13,1086.8 1253.13,1072.3 1249.5,1049.5C 1251.5,1028.3 1262.17,1013.46 1281.5,1005C 1299.35,1001.84 1313.52,1007.67 1324,1022.5C 1327.33,1026.83 1327.33,1031.17 1324,1035.5C 1322.19,1038.28 1320.02,1040.78 1317.5,1043C 1308.58,1049.71 1299.74,1056.55 1291,1063.5C 1290.5,1064.5 1290,1065.5 1289.5,1066.5C 1290.17,1066.83 1290.83,1067.17 1291.5,1067.5C 1307.67,1061.82 1320.83,1052.16 1331,1038.5C 1334.33,1032.17 1334.33,1025.83 1331,1019.5C 1316.76,997.799 1297.26,990.966 1272.5,999C 1251.31,1010.88 1241.15,1029.05 1242,1053.5C 1244.48,1071.28 1253.31,1084.78 1268.5,1094C 1275.24,1097.52 1282.24,1100.36 1289.5,1102.5C 1287.3,1114.64 1284.47,1126.64 1281,1138.5C 1278.75,1146.34 1275.41,1153.67 1271,1160.5C 1259.96,1174.55 1246.79,1186.05 1231.5,1195C 1219.22,1201.05 1207.06,1207.22 1195,1213.5C 1171.31,1200.6 1146.81,1189.43 1121.5,1180C 1078.15,1163.88 1033.82,1151.22 988.5,1142C 944.488,1130.9 902.155,1135.24 861.5,1155C 823.99,1173.22 789.157,1195.39 757,1221.5C 746.288,1209.12 735.955,1196.46 726,1183.5C 712.215,1160.71 707.215,1136.04 711,1109.5C 711.972,1099 713.806,1088.67 716.5,1078.5C 735.216,1105.53 761.216,1119.53 794.5,1120.5C 823.215,1119.32 849.215,1110.48 872.5,1094C 877.7,1089.13 882.533,1083.97 887,1078.5C 893.872,1085.04 901.039,1091.21 908.5,1097C 919.341,1103.18 930.008,1102.85 940.5,1096C 953.884,1087.95 965.384,1077.78 975,1065.5C 981.066,1053.6 977.566,1046.77 964.5,1045C 942.683,1044.61 921.183,1047.11 900,1052.5C 899.5,1052.17 899,1051.83 898.5,1051.5C 904.867,1029.84 902.534,1009.17 891.5,989.5 Z"/></g>
<g><path style="opacity:1" fill="#fefffe" d="M 1055.5,942.5 C 1069.27,952.565 1083.94,961.398 1099.5,969C 1086.43,967.861 1073.43,968.527 1060.5,971C 1051.14,972.929 1042.97,977.096 1036,983.5C 1025.44,1002.97 1022.11,1023.64 1026,1045.5C 1038.43,1076.31 1061.26,1089.47 1094.5,1085C 1135.71,1077.11 1153.87,1052.27 1149,1010.5C 1147.66,1003.32 1144.83,996.821 1140.5,991C 1146.38,992.96 1152.38,994.96 1158.5,997C 1171.03,1000.83 1183.2,999.996 1195,994.5C 1203.42,1064.76 1172.25,1102.6 1101.5,1108C 1066.61,1112.15 1037.11,1101.65 1013,1076.5C 1001.39,1062.77 994.886,1046.94 993.5,1029C 994.404,1015.95 997.571,1003.45 1003,991.5C 1012.11,984.693 1020.94,977.526 1029.5,970C 1038.81,961.193 1047.48,952.026 1055.5,942.5 Z"/></g>
<g><path style="opacity:1" fill="#fefffe" d="M 844.5,951.5 C 857.19,963.019 870.356,974.019 884,984.5C 897.51,1007.6 899.51,1031.6 890,1056.5C 883.179,1059.47 880.679,1064.47 882.5,1071.5C 873.499,1084.85 861.499,1094.69 846.5,1101C 826.753,1109.95 806.087,1113.62 784.5,1112C 760.646,1108.77 741.146,1097.94 726,1079.5C 723.159,1074.82 720.993,1069.82 719.5,1064.5C 727.446,1036.45 739.78,1010.61 756.5,987C 772.947,986.638 788.614,982.971 803.5,976C 818.223,969.317 831.89,961.15 844.5,951.5 Z"/></g>
<g><path style="opacity:1" fill="#574746" d="M 1080.5,977.5 C 1096.37,977.384 1111.37,980.884 1125.5,988C 1137.78,997.125 1143.78,1009.46 1143.5,1025C 1139.36,1054.14 1122.7,1071.14 1093.5,1076C 1065.86,1080.26 1045.69,1070.1 1033,1045.5C 1029.25,1034.02 1028.58,1022.35 1031,1010.5C 1034.14,1003.54 1037.81,996.877 1042,990.5C 1053.59,982.249 1066.42,977.916 1080.5,977.5 Z"/></g>
<g><path style="opacity:0.974" fill="#040404" d="M 802.5,980.5 C 824.005,978.406 842.171,985.073 857,1000.5C 873.724,1029.99 869.891,1056.49 845.5,1080C 824.505,1094.7 802.172,1097.7 778.5,1089C 755.262,1078.09 745.429,1059.93 749,1034.5C 751.545,1021.71 756.545,1010.04 764,999.5C 774.598,988.451 787.431,982.117 802.5,980.5 Z"/></g>
<g><path style="opacity:1" fill="#574746" d="M 803.5,988.5 C 822.394,986.741 838.561,992.407 852,1005.5C 867.734,1034.07 862.234,1057.91 835.5,1077C 814.491,1088.3 793.491,1088.3 772.5,1077C 757.453,1066.74 751.286,1052.57 754,1034.5C 755.397,1027.98 757.397,1021.64 760,1015.5C 765.887,1009.61 771.721,1003.78 777.5,998C 785.581,992.921 794.247,989.754 803.5,988.5 Z"/></g>
<g><path style="opacity:1" fill="#574746" d="M 931.5,1051.5 C 941.172,1051.33 950.839,1051.5 960.5,1052C 963.576,1052.35 966.576,1053.01 969.5,1054C 970.709,1057.03 970.209,1059.86 968,1062.5C 958.969,1073.1 948.469,1081.93 936.5,1089C 929.489,1093.84 922.156,1094.51 914.5,1091C 906.948,1084.96 899.448,1078.8 892,1072.5C 892.197,1067.92 893.697,1063.76 896.5,1060C 907.681,1054.68 919.347,1051.85 931.5,1051.5 Z"/></g>
<g><path style="opacity:1" fill="#cebe92" d="M 1285.5,1146.5 C 1289.45,1132.11 1291.45,1117.44 1291.5,1102.5C 1312.72,1105.1 1333.39,1102.76 1353.5,1095.5C 1360.95,1105.4 1361.45,1115.73 1355,1126.5C 1352.81,1129.68 1350.31,1132.51 1347.5,1135C 1333.43,1135.12 1319.43,1136.12 1305.5,1138C 1297.99,1139 1291.32,1141.83 1285.5,1146.5 Z"/></g>
<g><path style="opacity:1" fill="#fe0b2c" d="M 1330.5,1143.5 C 1385.08,1141.18 1438.74,1147.01 1491.5,1161C 1499.33,1163.05 1506.67,1166.05 1513.5,1170C 1511.27,1174.24 1508.27,1177.9 1504.5,1181C 1480.28,1199.95 1454.28,1216.12 1426.5,1229.5C 1412.46,1218.65 1397.46,1209.15 1381.5,1201C 1367.46,1194.99 1352.79,1192.33 1337.5,1193C 1374.71,1182.28 1412.71,1176.94 1451.5,1177C 1453.5,1176.33 1455.5,1175.67 1457.5,1175C 1451.55,1172.18 1445.21,1170.85 1438.5,1171C 1400.55,1169.21 1363.88,1175.21 1328.5,1189C 1315.44,1194.03 1302.78,1199.86 1290.5,1206.5C 1288.96,1201.72 1287.13,1197.05 1285,1192.5C 1281.82,1189 1277.98,1186.66 1273.5,1185.5C 1277.19,1173.61 1282.86,1162.78 1290.5,1153C 1294.44,1150.2 1298.78,1148.2 1303.5,1147C 1312.6,1145.45 1321.6,1144.29 1330.5,1143.5 Z"/></g>
<g><path style="opacity:1" fill="#fe0b2c" d="M 1219.5,1244.5 C 1222.73,1240.72 1224.23,1236.39 1224,1231.5C 1210.97,1242.7 1198.47,1254.37 1186.5,1266.5C 1141.31,1245.82 1094.31,1230.66 1045.5,1221C 1037.67,1218.89 1030,1219.22 1022.5,1222C 1020.04,1225.7 1019.87,1229.53 1022,1233.5C 1032.47,1259.59 1044.47,1284.92 1058,1309.5C 1063.83,1318 1069.67,1326.5 1075.5,1335C 1032.33,1365.59 985.663,1389.92 935.5,1408C 927.007,1411.12 918.341,1413.62 909.5,1415.5C 907.423,1415.31 905.423,1414.81 903.5,1414C 876.021,1396.21 851.188,1375.04 829,1350.5C 828.15,1348.99 827.317,1347.49 826.5,1346C 843.932,1317.98 859.432,1288.81 873,1258.5C 876.268,1250.36 878.935,1242.03 881,1233.5C 881.667,1229.17 881.667,1224.83 881,1220.5C 879.361,1217.77 876.861,1216.44 873.5,1216.5C 862.278,1218.3 851.611,1221.8 841.5,1227C 814.595,1239.94 789.262,1255.27 765.5,1273C 762.101,1273.55 758.768,1273.21 755.5,1272C 747.785,1268.87 740.118,1265.54 732.5,1262C 726.829,1259.5 723.163,1255.34 721.5,1249.5C 725.354,1236.97 732.354,1226.47 742.5,1218C 743.5,1217.33 744.5,1217.33 745.5,1218C 747.871,1220.71 750.537,1223.04 753.5,1225C 751.668,1226.49 750.835,1228.32 751,1230.5C 788.136,1203.34 827.636,1179.84 869.5,1160C 899.07,1145.92 930.07,1141.25 962.5,1146C 1034.62,1158.36 1103.95,1179.69 1170.5,1210C 1182.9,1215.94 1194.9,1222.44 1206.5,1229.5C 1210.25,1227.08 1210.25,1224.25 1206.5,1221C 1215.32,1221.19 1224.15,1221.69 1233,1222.5C 1236.26,1222.51 1239.42,1222.01 1242.5,1221C 1243.83,1220.33 1243.83,1219.67 1242.5,1219C 1239.9,1218.08 1237.23,1217.41 1234.5,1217C 1224.47,1216.47 1214.47,1216.47 1204.5,1217C 1215.48,1212.76 1225.98,1207.59 1236,1201.5C 1243.78,1206.69 1249.45,1213.69 1253,1222.5C 1256.03,1231.51 1252.87,1237.34 1243.5,1240C 1235.76,1242.9 1227.76,1244.4 1219.5,1244.5 Z"/></g>
<g><path style="opacity:1" fill="#cebe92" d="M 1272.5,1171.5 C 1272.01,1175.48 1271.01,1179.31 1269.5,1183C 1266.14,1183.63 1262.8,1183.96 1259.5,1184C 1263.73,1179.7 1268.06,1175.54 1272.5,1171.5 Z"/></g>
<g><path style="opacity:1" fill="#fe0b2c" d="M 1257.5,1189.5 C 1260.91,1189.25 1264.24,1189.58 1267.5,1190.5C 1268.31,1192.42 1268.81,1194.42 1269,1196.5C 1269.36,1194.58 1270.19,1192.91 1271.5,1191.5C 1276.73,1193.9 1279.9,1197.9 1281,1203.5C 1281.67,1208.83 1281.67,1214.17 1281,1219.5C 1276.71,1228.46 1270.87,1236.3 1263.5,1243C 1259,1246.96 1254,1247.96 1248.5,1246C 1259.78,1240.5 1262.94,1232 1258,1220.5C 1252.79,1212.18 1245.95,1205.68 1237.5,1201C 1241.11,1199.06 1244.44,1196.72 1247.5,1194C 1251,1192.75 1254.33,1191.25 1257.5,1189.5 Z"/></g>
<g><path style="opacity:1" fill="#fe0b2c" d="M 1280.5,1237.5 C 1283.17,1233.31 1285.67,1228.98 1288,1224.5C 1289.29,1220.27 1289.79,1215.94 1289.5,1211.5C 1306.7,1207.53 1324.04,1204.2 1341.5,1201.5C 1356.79,1202.41 1371.13,1206.57 1384.5,1214C 1400.96,1223.79 1416.29,1235.12 1430.5,1248C 1449.07,1266.56 1466.9,1285.73 1484,1305.5C 1486.67,1310.84 1489.83,1315.84 1493.5,1320.5C 1454.97,1325.62 1416.3,1329.29 1377.5,1331.5C 1356.22,1331.74 1335.89,1327.58 1316.5,1319C 1292.5,1302.5 1274.5,1281 1262.5,1254.5C 1266.75,1251.02 1271.09,1247.52 1275.5,1244C 1306.95,1236.11 1337.62,1238.44 1367.5,1251C 1389.52,1259.84 1411.19,1269.51 1432.5,1280C 1434.89,1280.29 1437.22,1280.79 1439.5,1281.5C 1440.52,1281 1440.69,1280.33 1440,1279.5C 1428.27,1269.71 1415.43,1261.54 1401.5,1255C 1375.5,1241.89 1348,1234.05 1319,1231.5C 1305.92,1232.06 1293.08,1234.06 1280.5,1237.5 Z"/></g>
<g><path style="opacity:1" fill="#fbf5dd" d="M 868.5,1224.5 C 870.833,1224.5 873.167,1224.5 875.5,1224.5C 873.639,1238.25 869.472,1251.25 863,1263.5C 862.626,1262.58 862.126,1261.75 861.5,1261C 849.551,1253.2 836.551,1247.86 822.5,1245C 837.313,1236.76 852.646,1229.92 868.5,1224.5 Z"/></g>
<g><path style="opacity:1" fill="#fbf5dd" d="M 1028.5,1229.5 C 1035.37,1228.32 1042.37,1228.48 1049.5,1230C 1061.92,1232.28 1074.25,1234.95 1086.5,1238C 1070.75,1242.29 1056.25,1249.12 1043,1258.5C 1037.62,1249.08 1032.79,1239.41 1028.5,1229.5 Z"/></g>
<g><path style="opacity:1" fill="#3d3e3d" d="M 1092.5,1239.5 C 1120.16,1246.89 1147.49,1255.39 1174.5,1265C 1181.39,1269.61 1188.73,1273.45 1196.5,1276.5C 1198.27,1275.73 1199.27,1274.4 1199.5,1272.5C 1198.55,1270.71 1197.71,1269.05 1197,1267.5C 1202.5,1263.33 1208,1259.17 1213.5,1255C 1224.81,1252.72 1235.98,1249.88 1247,1246.5C 1263.71,1276.3 1273.38,1308.3 1276,1342.5C 1281.4,1386.53 1281.4,1430.53 1276,1474.5C 1273.62,1491.69 1268.62,1508.02 1261,1523.5C 1260.07,1526.1 1258.23,1527.6 1255.5,1528C 1246.36,1530.64 1237.02,1531.97 1227.5,1532C 1130.49,1532.71 1033.49,1533.88 936.5,1535.5C 936.48,1524.81 935.98,1514.15 935,1503.5C 932.199,1476.35 929.699,1449.19 927.5,1422C 927.833,1421.17 928.167,1420.33 928.5,1419.5C 975.974,1403.59 1020.64,1382.09 1062.5,1355C 1068.98,1351 1074.81,1346.17 1080,1340.5C 1097.53,1361.84 1119.03,1377.67 1144.5,1388C 1191.74,1396.37 1223.57,1378.2 1240,1333.5C 1243.86,1314.64 1244.53,1295.64 1242,1276.5C 1241.3,1272.1 1239.3,1268.43 1236,1265.5C 1234.92,1267.12 1234.42,1268.95 1234.5,1271C 1237.24,1289.89 1237.08,1308.72 1234,1327.5C 1221.13,1367.03 1193.96,1384.86 1152.5,1381C 1142.7,1379.27 1133.7,1375.6 1125.5,1370C 1097.21,1350.57 1075.05,1325.73 1059,1295.5C 1053.48,1285.3 1048.65,1274.8 1044.5,1264C 1048.78,1260.85 1053.45,1258.19 1058.5,1256C 1069.13,1251.74 1079.79,1247.57 1090.5,1243.5C 1091.71,1242.42 1092.37,1241.09 1092.5,1239.5 Z"/></g>
<g><path style="opacity:1" fill="#3d3e3d" d="M 727.5,1268.5 C 733.583,1270.71 739.583,1273.21 745.5,1276C 749.899,1276.82 754.232,1277.82 758.5,1279C 751.813,1284.01 746.313,1289.84 742,1296.5C 764.621,1278.01 788.955,1262.01 815,1248.5C 828.766,1252.98 841.933,1258.81 854.5,1266C 856.876,1267.42 858.543,1269.42 859.5,1272C 845.756,1301.67 829.589,1329.83 811,1356.5C 789.237,1379.39 764.07,1383.89 735.5,1370C 714.629,1356.08 705.796,1336.58 709,1311.5C 710.26,1305.72 711.927,1300.05 714,1294.5C 718.783,1285.93 723.283,1277.27 727.5,1268.5 Z"/></g>
<g><path style="opacity:1" fill="#3d3e3d" d="M 824.5,1348.5 C 839.769,1370.94 858.103,1390.78 879.5,1408C 887.369,1413.77 895.702,1418.77 904.5,1423C 912.015,1423.9 919.182,1422.73 926,1419.5C 925.484,1458.18 926.317,1496.84 928.5,1535.5C 875.469,1537.07 822.469,1539.07 769.5,1541.5C 764.878,1540.61 760.211,1540.28 755.5,1540.5C 753.842,1488.51 752.509,1436.51 751.5,1384.5C 784.235,1389.3 808.568,1377.3 824.5,1348.5 Z"/></g>
<g><path style="opacity:0.975" fill="#040404" d="M 995.5,1437.5 C 1019.66,1438.66 1032.66,1451.33 1034.5,1475.5C 1032.84,1499.16 1020.17,1511.83 996.5,1513.5C 966.766,1509.96 954.6,1493.63 960,1464.5C 967.086,1449.06 978.919,1440.06 995.5,1437.5 Z"/></g>
<g><path style="opacity:1" fill="#fee200" d="M 998.5,1445.5 C 1023.45,1450.06 1031.95,1464.4 1024,1488.5C 1012.21,1504.91 997.045,1508.74 978.5,1500C 961.341,1487.03 958.841,1471.53 971,1453.5C 971.388,1454.43 972.055,1455.09 973,1455.5C 980.911,1450.28 989.411,1446.95 998.5,1445.5 Z"/></g>
<g><path style="opacity:1" fill="#3d3e3d" d="M 1252.5,1537.5 C 1253.5,1537.5 1254.5,1537.5 1255.5,1537.5C 1253.06,1553.6 1248.89,1569.26 1243,1584.5C 1227.8,1626.79 1209.13,1667.46 1187,1706.5C 1180.33,1715.83 1173.67,1725.17 1167,1734.5C 1165.75,1736.68 1163.92,1738.02 1161.5,1738.5C 1137.16,1735.86 1112.82,1735.86 1088.5,1738.5C 1080.8,1711.66 1066.47,1689.16 1045.5,1671C 1037.37,1665.1 1028.37,1661.1 1018.5,1659C 1004.87,1657.45 991.208,1657.12 977.5,1658C 965.267,1659.78 954.6,1664.78 945.5,1673C 926.648,1690.69 912.314,1711.53 902.5,1735.5C 883.922,1737.15 865.922,1740.98 848.5,1747C 826.61,1711.72 807.443,1674.89 791,1636.5C 778.956,1608.66 771.456,1579.66 768.5,1549.5C 838.799,1546.43 909.132,1544.27 979.5,1543C 1063.84,1542.72 1148.17,1542.06 1232.5,1541C 1239.49,1540.94 1246.16,1539.77 1252.5,1537.5 Z"/></g>
<g><path style="opacity:1" fill="#fbf5dd" d="M 1090.5,1741.5 C 1112.29,1743.28 1134.29,1745.45 1156.5,1748C 1146.86,1758.64 1136.86,1768.97 1126.5,1779C 1122.1,1782.12 1117.27,1784.28 1112,1785.5C 1107.01,1783.18 1103.35,1779.51 1101,1774.5C 1096.79,1763.71 1093.29,1752.71 1090.5,1741.5 Z"/></g>
<g><path style="opacity:1" fill="#fbf5dd" d="M 898.5,1744.5 C 894.404,1760.56 889.237,1776.23 883,1791.5C 869.913,1780.75 859.413,1767.92 851.5,1753C 866.946,1749.31 882.612,1746.48 898.5,1744.5 Z"/></g>
</svg>
